<?xml version="1.0" encoding="iso-8859-1"?>
<!-- Generator: Adobe Illustrator 19.0.0, SVG Export Plug-In . SVG Version: 6.00 Build 0)  -->
<svg version="1.1" id="Capa_1" xmlns="http://www.w3.org/2000/svg" xmlns:xlink="http://www.w3.org/1999/xlink" x="0px" y="0px"
	 viewBox="0 0 512 512" style="enable-background:new 0 0 512 512;" xml:space="preserve">
<polygon style="fill:#A0EBFF;" points="386.908,240.432 340.53,163.864 179.576,163.864 162.85,240.432 "/>
<polygon style="fill:#6EE1FF;" points="345.837,173.484 338.133,160.766 180.441,160.766 177.663,173.484 "/>
<g>
	<polygon style="opacity:0.5;fill:#FFFFFF;enable-background:new    ;" points="194.368,240.432 233.181,163.864 212.195,163.864 
		173.382,240.432 	"/>
	<polygon style="opacity:0.5;fill:#FFFFFF;enable-background:new    ;" points="274.637,240.432 313.45,163.864 292.464,163.864 
		253.651,240.432 	"/>
	<polygon style="opacity:0.61;fill:#FFFFFF;enable-background:new    ;" points="291.917,240.432 330.729,163.864 320.236,163.864 
		281.424,240.432 	"/>
</g>
<path style="fill:#50555A;" d="M164.189,355.53h-47.483c-1.581,0-2.863-1.282-2.863-2.863v-14.509c0-1.581,1.282-2.863,2.863-2.863
	h47.483V355.53z"/>
<path style="fill:#2896FF;" d="M495.694,268.575c0-22.907-18.568-41.482-41.475-41.482h-62.11l-40.626-72.976
	c-3.735-6.67-10.805-10.814-18.451-10.814H182.197c-9.85,0-18.536,6.982-20.653,16.603l-22.073,97.839v97.174
	c0.666,0.044,26.916,0.661,26.916,0.661H481.4c0,0,13.934-1.442,14.294-1.544C495.694,347.188,495.694,297.195,495.694,268.575z
	 M371.119,237.4h-11.663v0.143h-104.44v-70.68h76.602L371.119,237.4z M184.136,166.863h47.32v70.68h-62.869L184.136,166.863z"/>
<path style="fill:#1E87DC;" d="M512,331.123c0,13.508-10.951,24.459-24.459,24.459H138.373c-5.516,0-9.987-4.471-9.987-9.987
	v-28.944c0-5.516,4.471-9.987,9.987-9.987h349.168C501.049,306.664,512,317.614,512,331.123z"/>
<path style="fill:#1E73BE;" d="M296.146,269.021h-25.247c-4.745,0-8.591-3.847-8.591-8.592c0-4.745,3.846-8.592,8.591-8.592h25.247
	c4.745,0,8.591,3.847,8.591,8.592C304.738,265.174,300.891,269.021,296.146,269.021z"/>
<path style="fill:#1E87DC;" d="M477.959,270.85c-8.741,0-15.827,7.086-15.827,15.827s7.086,15.827,15.827,15.827h17.735
	c0-6.18,0-24.896,0-31.654H477.959z"/>
<path style="fill:#FAC855;" d="M495.518,264.838h-17.559c-8.741,0-15.827,7.086-15.827,15.827s7.086,15.827,15.827,15.827h17.735
	c0-5.781,0-22.278,0-27.917C495.694,267.314,495.628,266.069,495.518,264.838z"/>
<path style="fill:#FF640A;" d="M157.365,302.043c0,2.552-2.069,4.62-4.62,4.62H139.47v-37.642h13.274c2.552,0,4.62,2.069,4.62,4.62
	v28.402H157.365z"/>
<path style="fill:#1E73BE;" d="M364.811,355.582h102.646l0,0c0-28.952-23.47-52.422-52.422-52.422
	c-28.935,0-52.393,23.443-52.421,52.37C363.975,355.562,364.811,355.582,364.811,355.582z"/>
<circle style="fill:#373C41;" cx="415.04" cy="355.58" r="40.504"/>
<circle style="fill:#696E73;" cx="415.04" cy="355.58" r="16.407"/>
<path style="fill:#82878C;" d="M415.035,339.175v32.813c9.061,0,16.407-7.346,16.407-16.407
	C431.442,346.521,424.096,339.175,415.035,339.175z"/>
<g>
	<rect x="231.46" y="166.86" style="fill:#1E87DC;" width="23.56" height="6.379"/>
	<rect x="168.59" y="237.54" style="fill:#1E87DC;" width="198.87" height="6.932"/>
</g>
<path style="fill:#1E73BE;" d="M384.852,227.081c0,9.607-7.788,17.394-17.394,17.394h-17.394v-34.789h17.394
	C377.064,209.687,384.852,217.474,384.852,227.081L384.852,227.081z"/>
<g>
	<path style="fill:#1E87DC;" d="M488.576,245.323c-7.458-11.007-20.062-18.242-34.358-18.242h-62.11
		c6.937,11.332,19.268,18.242,32.555,18.242H488.576z"/>
	<rect x="239.25" y="241.01" style="fill:#1E87DC;" width="6.76" height="71.17"/>
</g>
<path style="fill:#1E73BE;" d="M166.386,355.582h102.646l0,0c0-28.952-23.47-52.422-52.422-52.422
	c-28.935,0-52.393,23.443-52.421,52.37C165.55,355.562,166.386,355.582,166.386,355.582z"/>
<circle style="fill:#373C41;" cx="216.61" cy="355.58" r="40.504"/>
<circle style="fill:#696E73;" cx="216.61" cy="355.58" r="16.407"/>
<path style="fill:#82878C;" d="M216.61,339.175v32.813c9.061,0,16.407-7.346,16.407-16.407
	C233.017,346.521,225.671,339.175,216.61,339.175z"/>
<path style="fill:#696E73;" d="M330.214,128.226c0,2.53-2.051,4.581-4.581,4.581H188.195c-2.53,0-4.581-2.051-4.581-4.581l0,0
	c0-2.53,2.051-4.581,4.581-4.581h137.437C328.162,123.645,330.214,125.696,330.214,128.226L330.214,128.226z"/>
<g>
	<path style="fill:#82878C;" d="M209.569,143.303h-10.028v-22.375c0-2.769,2.245-5.014,5.014-5.014s5.014,2.245,5.014,5.014V143.303
		z"/>
	<path style="fill:#82878C;" d="M314.286,143.303h-10.028v-22.375c0-2.769,2.245-5.014,5.014-5.014s5.014,2.245,5.014,5.014V143.303
		z"/>
</g>
<path style="fill:#64AFFF;" d="M301.45,237.543v-17.207c0-6.894-5.588-12.482-12.482-12.482h-12.495
	c-6.894,0-12.482,5.588-12.482,12.482v17.207H301.45z"/>
<path style="fill:#373C41;" d="M331.652,237.543l9.673-12.07c2.496-3.115,1.995-7.665-1.121-10.162
	c-3.115-2.496-7.665-1.995-10.162,1.121l-16.918,21.111H331.652z"/>
<circle style="fill:#FFB69E;" cx="285.76" cy="184.38" r="17.515"/>
<path style="fill:#78BEFF;" d="M291.216,237.543h-16.99v-15.325c0-4.692,3.803-8.495,8.495-8.495l0,0
	c4.692,0,8.495,3.803,8.495,8.495V237.543z"/>
<path style="fill:#414B82;" d="M3.44,391.912c-4.75-4.988-4.557-12.881,0.431-17.631l46.646-44.417l0.144-51.965
	c0.019-6.888,5.579-12.467,12.506-12.437c6.887,0.019,12.455,5.618,12.436,12.505l-0.159,57.29c-0.01,3.402-1.407,6.652-3.871,8.997
	l-50.501,48.089C16.064,397.111,8.171,396.883,3.44,391.912z"/>
<path style="fill:#53618C;" d="M134.487,238.6l-16.886-19.075c-5.228-5.905-14.252-6.456-20.159-1.23l-47.035,41.643
	c-7.47,6.614-8.33,17.967-1.941,25.63l40.565,48.66l6.83,50.786c0.936,6.963,7.336,11.897,14.359,10.956
	c6.991-0.94,11.896-7.369,10.956-14.36l-7.32-54.439c-0.321-2.387-1.31-4.634-2.853-6.483l-20.268-24.281l42.526-37.646
	C139.167,253.533,139.716,244.506,134.487,238.6z"/>
<path style="fill:#CD2D23;" d="M49.211,260.967l48.231-42.672c5.907-5.226,14.931-4.675,20.159,1.23l16.886,19.075
	c5.229,5.906,4.679,14.933-1.227,20.162l-42.526,37.646L49.211,260.967z"/>
<circle style="fill:#BA6746;" cx="146.69" cy="210.94" r="21.14"/>
<path style="fill:#BA6746;" d="M142.025,315.182l-34.426-23.31c-2.83-1.915-4.513-5.118-4.485-8.534l1.079-49.212
	c0.047-5.634,4.652-10.164,10.286-10.117c5.634,0.043,10.164,4.652,10.117,10.286l-0.367,44.213l29.229,19.774
	c4.667,3.157,5.89,9.5,2.733,14.166C153.038,317.11,146.695,318.342,142.025,315.182z"/>
<path style="fill:#BE1E14;" d="M103.608,260.797l0.585-26.671c0.047-5.634,4.652-10.163,10.286-10.117
	c5.634,0.043,10.163,4.652,10.117,10.286l-0.221,26.604L103.608,260.797z"/>
<g>
</g>
<g>
</g>
<g>
</g>
<g>
</g>
<g>
</g>
<g>
</g>
<g>
</g>
<g>
</g>
<g>
</g>
<g>
</g>
<g>
</g>
<g>
</g>
<g>
</g>
<g>
</g>
<g>
</g>
</svg>
